<mxfile host="app.diagrams.net" agent="Mozilla/5.0 (Windows NT 10.0; Win64; x64) AppleWebKit/537.36 (KHTML, like Gecko) Chrome/140.0.0.0 Safari/537.36" version="28.2.5">
  <diagram name="Página-1" id="MGcSxXjV8Nb3_KUCdJIc">
    <mxGraphModel grid="1" page="1" gridSize="10" guides="1" tooltips="1" connect="1" arrows="1" fold="1" pageScale="1" pageWidth="827" pageHeight="1169" math="0" shadow="0">
      <root>
        <mxCell id="0" />
        <mxCell id="1" parent="0" />
        <mxCell id="Xew_BR4jW7hNaRtCo3TJ-1" value="" style="fontColor=#0066CC;verticalAlign=top;verticalLabelPosition=bottom;labelPosition=center;align=center;html=1;outlineConnect=0;fillColor=#CCCCCC;strokeColor=#6881B3;gradientColor=none;gradientDirection=north;strokeWidth=2;shape=mxgraph.networks.firewall;" vertex="1" parent="1">
          <mxGeometry x="515" y="140" width="70" height="70" as="geometry" />
        </mxCell>
        <mxCell id="Xew_BR4jW7hNaRtCo3TJ-2" value="&lt;div&gt;&lt;br&gt;&lt;/div&gt;&lt;div&gt;Internet / Wan&lt;/div&gt;" style="html=1;outlineConnect=0;fillColor=#CCCCCC;strokeColor=#6881B3;gradientColor=none;gradientDirection=north;strokeWidth=2;shape=mxgraph.networks.cloud;fontColor=#ffffff;" vertex="1" parent="1">
          <mxGeometry x="495" y="10" width="110" height="70" as="geometry" />
        </mxCell>
        <mxCell id="Xew_BR4jW7hNaRtCo3TJ-3" value="" style="fontColor=#0066CC;verticalAlign=top;verticalLabelPosition=bottom;labelPosition=center;align=center;html=1;outlineConnect=0;fillColor=#CCCCCC;strokeColor=#6881B3;gradientColor=none;gradientDirection=north;strokeWidth=2;shape=mxgraph.networks.switch;" vertex="1" parent="1">
          <mxGeometry x="90" y="610" width="100" height="30" as="geometry" />
        </mxCell>
        <mxCell id="Xew_BR4jW7hNaRtCo3TJ-4" value="" style="fontColor=#0066CC;verticalAlign=top;verticalLabelPosition=bottom;labelPosition=center;align=center;html=1;outlineConnect=0;fillColor=#CCCCCC;strokeColor=#6881B3;gradientColor=none;gradientDirection=north;strokeWidth=2;shape=mxgraph.networks.switch;" vertex="1" parent="1">
          <mxGeometry x="359" y="610" width="100" height="30" as="geometry" />
        </mxCell>
        <mxCell id="Xew_BR4jW7hNaRtCo3TJ-5" value="" style="fontColor=#0066CC;verticalAlign=top;verticalLabelPosition=bottom;labelPosition=center;align=center;html=1;outlineConnect=0;fillColor=#CCCCCC;strokeColor=#6881B3;gradientColor=none;gradientDirection=north;strokeWidth=2;shape=mxgraph.networks.router;" vertex="1" parent="1">
          <mxGeometry x="501.17" y="320" width="100" height="30" as="geometry" />
        </mxCell>
        <mxCell id="Xew_BR4jW7hNaRtCo3TJ-7" style="edgeStyle=orthogonalEdgeStyle;rounded=0;orthogonalLoop=1;jettySize=auto;html=1;exitX=0.5;exitY=1;exitDx=0;exitDy=0;exitPerimeter=0;" edge="1" parent="1" source="Xew_BR4jW7hNaRtCo3TJ-5" target="Xew_BR4jW7hNaRtCo3TJ-5">
          <mxGeometry relative="1" as="geometry" />
        </mxCell>
        <mxCell id="Xew_BR4jW7hNaRtCo3TJ-9" value="LAM 1" style="swimlane;childLayout=stackLayout;horizontal=1;startSize=50;horizontalStack=0;rounded=1;fontSize=14;fontStyle=0;strokeWidth=2;resizeParent=0;resizeLast=1;shadow=0;dashed=0;align=center;arcSize=4;whiteSpace=wrap;html=1;" vertex="1" parent="1">
          <mxGeometry x="70" y="450" width="160" height="120" as="geometry" />
        </mxCell>
        <mxCell id="Xew_BR4jW7hNaRtCo3TJ-10" value="Rede - 172.16.0.0/26&lt;div&gt;&lt;br&gt;&lt;div&gt;Gateway - 172.16.0.62&lt;/div&gt;&lt;/div&gt;" style="align=left;strokeColor=none;fillColor=none;spacingLeft=4;spacingRight=4;fontSize=12;verticalAlign=top;resizable=0;rotatable=0;part=1;html=1;whiteSpace=wrap;" vertex="1" parent="Xew_BR4jW7hNaRtCo3TJ-9">
          <mxGeometry y="50" width="160" height="70" as="geometry" />
        </mxCell>
        <mxCell id="Xew_BR4jW7hNaRtCo3TJ-11" value="LAM 2" style="swimlane;childLayout=stackLayout;horizontal=1;startSize=50;horizontalStack=0;rounded=1;fontSize=14;fontStyle=0;strokeWidth=2;resizeParent=0;resizeLast=1;shadow=0;dashed=0;align=center;arcSize=4;whiteSpace=wrap;html=1;" vertex="1" parent="1">
          <mxGeometry x="330" y="450" width="160" height="120" as="geometry" />
        </mxCell>
        <mxCell id="Xew_BR4jW7hNaRtCo3TJ-12" value="Rede - 172.16.0.64/26&lt;div&gt;&lt;br&gt;&lt;div&gt;Gateway - 172.16.0.126&lt;/div&gt;&lt;/div&gt;" style="align=left;strokeColor=none;fillColor=none;spacingLeft=4;spacingRight=4;fontSize=12;verticalAlign=top;resizable=0;rotatable=0;part=1;html=1;whiteSpace=wrap;" vertex="1" parent="Xew_BR4jW7hNaRtCo3TJ-11">
          <mxGeometry y="50" width="160" height="70" as="geometry" />
        </mxCell>
        <mxCell id="Xew_BR4jW7hNaRtCo3TJ-13" value="Coordenação" style="swimlane;childLayout=stackLayout;horizontal=1;startSize=50;horizontalStack=0;rounded=1;fontSize=14;fontStyle=0;strokeWidth=2;resizeParent=0;resizeLast=1;shadow=0;dashed=0;align=center;arcSize=4;whiteSpace=wrap;html=1;" vertex="1" parent="1">
          <mxGeometry x="610" y="450" width="160" height="120" as="geometry" />
        </mxCell>
        <mxCell id="Xew_BR4jW7hNaRtCo3TJ-14" value="Rede - 172.16.0.160/28&lt;div&gt;&lt;br&gt;&lt;div&gt;Gateway - 172.16.0.174&lt;/div&gt;&lt;/div&gt;" style="align=left;strokeColor=none;fillColor=none;spacingLeft=4;spacingRight=4;fontSize=12;verticalAlign=top;resizable=0;rotatable=0;part=1;html=1;whiteSpace=wrap;" vertex="1" parent="Xew_BR4jW7hNaRtCo3TJ-13">
          <mxGeometry y="50" width="160" height="70" as="geometry" />
        </mxCell>
        <mxCell id="Xew_BR4jW7hNaRtCo3TJ-21" value="" style="fontColor=#0066CC;verticalAlign=top;verticalLabelPosition=bottom;labelPosition=center;align=center;html=1;outlineConnect=0;fillColor=#CCCCCC;strokeColor=#6881B3;gradientColor=none;gradientDirection=north;strokeWidth=2;shape=mxgraph.networks.pc;" vertex="1" parent="Xew_BR4jW7hNaRtCo3TJ-13">
          <mxGeometry y="120" width="160" as="geometry" />
        </mxCell>
        <mxCell id="Xew_BR4jW7hNaRtCo3TJ-15" value="" style="fontColor=#0066CC;verticalAlign=top;verticalLabelPosition=bottom;labelPosition=center;align=center;html=1;outlineConnect=0;fillColor=#CCCCCC;strokeColor=#6881B3;gradientColor=none;gradientDirection=north;strokeWidth=2;shape=mxgraph.networks.switch;" vertex="1" parent="1">
          <mxGeometry x="640" y="610" width="100" height="30" as="geometry" />
        </mxCell>
        <mxCell id="Xew_BR4jW7hNaRtCo3TJ-16" value="" style="fontColor=#0066CC;verticalAlign=top;verticalLabelPosition=bottom;labelPosition=center;align=center;html=1;outlineConnect=0;fillColor=#CCCCCC;strokeColor=#6881B3;gradientColor=none;gradientDirection=north;strokeWidth=2;shape=mxgraph.networks.pc;" vertex="1" parent="1">
          <mxGeometry x="60" y="690" width="60" height="50" as="geometry" />
        </mxCell>
        <mxCell id="Xew_BR4jW7hNaRtCo3TJ-17" value="" style="fontColor=#0066CC;verticalAlign=top;verticalLabelPosition=bottom;labelPosition=center;align=center;html=1;outlineConnect=0;fillColor=#CCCCCC;strokeColor=#6881B3;gradientColor=none;gradientDirection=north;strokeWidth=2;shape=mxgraph.networks.pc;" vertex="1" parent="1">
          <mxGeometry x="170" y="690" width="60" height="50" as="geometry" />
        </mxCell>
        <mxCell id="Xew_BR4jW7hNaRtCo3TJ-18" value="" style="fontColor=#0066CC;verticalAlign=top;verticalLabelPosition=bottom;labelPosition=center;align=center;html=1;outlineConnect=0;fillColor=#CCCCCC;strokeColor=#6881B3;gradientColor=none;gradientDirection=north;strokeWidth=2;shape=mxgraph.networks.pc;" vertex="1" parent="1">
          <mxGeometry x="330" y="690" width="60" height="50" as="geometry" />
        </mxCell>
        <mxCell id="Xew_BR4jW7hNaRtCo3TJ-19" value="" style="fontColor=#0066CC;verticalAlign=top;verticalLabelPosition=bottom;labelPosition=center;align=center;html=1;outlineConnect=0;fillColor=#CCCCCC;strokeColor=#6881B3;gradientColor=none;gradientDirection=north;strokeWidth=2;shape=mxgraph.networks.pc;" vertex="1" parent="1">
          <mxGeometry x="435" y="690" width="60" height="50" as="geometry" />
        </mxCell>
        <mxCell id="Xew_BR4jW7hNaRtCo3TJ-20" value="" style="fontColor=#0066CC;verticalAlign=top;verticalLabelPosition=bottom;labelPosition=center;align=center;html=1;outlineConnect=0;fillColor=#CCCCCC;strokeColor=#6881B3;gradientColor=none;gradientDirection=north;strokeWidth=2;shape=mxgraph.networks.pc;" vertex="1" parent="1">
          <mxGeometry x="610" y="690" width="60" height="50" as="geometry" />
        </mxCell>
        <mxCell id="Xew_BR4jW7hNaRtCo3TJ-22" value="" style="fontColor=#0066CC;verticalAlign=top;verticalLabelPosition=bottom;labelPosition=center;align=center;html=1;outlineConnect=0;fillColor=#CCCCCC;strokeColor=#6881B3;gradientColor=none;gradientDirection=north;strokeWidth=2;shape=mxgraph.networks.pc;" vertex="1" parent="1">
          <mxGeometry x="720" y="690" width="60" height="50" as="geometry" />
        </mxCell>
        <mxCell id="rDgrogpZ4jHUE3ttyZAJ-4" value="G2BC" style="swimlane;childLayout=stackLayout;horizontal=1;startSize=50;horizontalStack=0;rounded=1;fontSize=14;fontStyle=0;strokeWidth=2;resizeParent=0;resizeLast=1;shadow=0;dashed=0;align=center;arcSize=4;whiteSpace=wrap;html=1;" vertex="1" parent="1">
          <mxGeometry x="870" y="450" width="160" height="120" as="geometry" />
        </mxCell>
        <mxCell id="rDgrogpZ4jHUE3ttyZAJ-5" value="Rede - 172.16.0.176/27&lt;div&gt;&lt;br&gt;&lt;div&gt;Gateway - 172.16.0.206&lt;/div&gt;&lt;/div&gt;" style="align=left;strokeColor=none;fillColor=none;spacingLeft=4;spacingRight=4;fontSize=12;verticalAlign=top;resizable=0;rotatable=0;part=1;html=1;whiteSpace=wrap;" vertex="1" parent="rDgrogpZ4jHUE3ttyZAJ-4">
          <mxGeometry y="50" width="160" height="70" as="geometry" />
        </mxCell>
        <mxCell id="rDgrogpZ4jHUE3ttyZAJ-6" value="" style="fontColor=#0066CC;verticalAlign=top;verticalLabelPosition=bottom;labelPosition=center;align=center;html=1;outlineConnect=0;fillColor=#CCCCCC;strokeColor=#6881B3;gradientColor=none;gradientDirection=north;strokeWidth=2;shape=mxgraph.networks.pc;" vertex="1" parent="rDgrogpZ4jHUE3ttyZAJ-4">
          <mxGeometry y="120" width="160" as="geometry" />
        </mxCell>
        <mxCell id="rDgrogpZ4jHUE3ttyZAJ-7" value="" style="fontColor=#0066CC;verticalAlign=top;verticalLabelPosition=bottom;labelPosition=center;align=center;html=1;outlineConnect=0;fillColor=#CCCCCC;strokeColor=#6881B3;gradientColor=none;gradientDirection=north;strokeWidth=2;shape=mxgraph.networks.pc;" vertex="1" parent="1">
          <mxGeometry x="870" y="690" width="60" height="50" as="geometry" />
        </mxCell>
        <mxCell id="rDgrogpZ4jHUE3ttyZAJ-8" value="" style="fontColor=#0066CC;verticalAlign=top;verticalLabelPosition=bottom;labelPosition=center;align=center;html=1;outlineConnect=0;fillColor=#CCCCCC;strokeColor=#6881B3;gradientColor=none;gradientDirection=north;strokeWidth=2;shape=mxgraph.networks.pc;" vertex="1" parent="1">
          <mxGeometry x="980" y="690" width="60" height="50" as="geometry" />
        </mxCell>
        <mxCell id="rDgrogpZ4jHUE3ttyZAJ-9" value="" style="line;strokeWidth=2;direction=south;html=1;" vertex="1" parent="1">
          <mxGeometry x="545" y="210" width="10" height="110" as="geometry" />
        </mxCell>
        <mxCell id="rDgrogpZ4jHUE3ttyZAJ-10" value="" style="line;strokeWidth=2;direction=south;html=1;" vertex="1" parent="1">
          <mxGeometry x="545" y="350" width="10" height="90" as="geometry" />
        </mxCell>
        <mxCell id="rDgrogpZ4jHUE3ttyZAJ-12" value="" style="line;strokeWidth=2;direction=south;html=1;rotation=90;" vertex="1" parent="1">
          <mxGeometry x="546.17" y="-32.43" width="10" height="944.84" as="geometry" />
        </mxCell>
        <mxCell id="Ioz14Vr7OrkPLFIBhdzb-3" value="" style="fontColor=#0066CC;verticalAlign=top;verticalLabelPosition=bottom;labelPosition=center;align=center;html=1;outlineConnect=0;fillColor=#CCCCCC;strokeColor=#6881B3;gradientColor=none;gradientDirection=north;strokeWidth=2;shape=mxgraph.networks.switch;" vertex="1" parent="1">
          <mxGeometry x="900" y="610" width="100" height="30" as="geometry" />
        </mxCell>
        <mxCell id="Ioz14Vr7OrkPLFIBhdzb-4" value="" style="line;strokeWidth=2;direction=south;html=1;" vertex="1" parent="1">
          <mxGeometry x="545" y="80" width="10" height="60" as="geometry" />
        </mxCell>
        <mxCell id="Ioz14Vr7OrkPLFIBhdzb-14" value="" style="line;strokeWidth=2;direction=south;html=1;" vertex="1" parent="1">
          <mxGeometry x="404" y="570" width="10" height="40" as="geometry" />
        </mxCell>
        <mxCell id="Ioz14Vr7OrkPLFIBhdzb-15" value="" style="line;strokeWidth=2;direction=south;html=1;" vertex="1" parent="1">
          <mxGeometry x="685" y="570" width="10" height="40" as="geometry" />
        </mxCell>
        <mxCell id="Ioz14Vr7OrkPLFIBhdzb-16" value="" style="line;strokeWidth=2;direction=south;html=1;" vertex="1" parent="1">
          <mxGeometry x="135" y="570" width="10" height="40" as="geometry" />
        </mxCell>
        <mxCell id="Ioz14Vr7OrkPLFIBhdzb-17" value="" style="line;strokeWidth=2;direction=south;html=1;" vertex="1" parent="1">
          <mxGeometry x="945" y="570" width="10" height="40" as="geometry" />
        </mxCell>
        <mxCell id="Ioz14Vr7OrkPLFIBhdzb-18" value="" style="line;strokeWidth=2;direction=north;html=1;rotation=30;" vertex="1" parent="1">
          <mxGeometry x="98.83" y="635.69" width="10" height="64" as="geometry" />
        </mxCell>
        <mxCell id="Ioz14Vr7OrkPLFIBhdzb-20" value="" style="line;strokeWidth=2;direction=north;html=1;rotation=155;" vertex="1" parent="1">
          <mxGeometry x="180" y="635.33" width="10" height="60" as="geometry" />
        </mxCell>
        <mxCell id="Ioz14Vr7OrkPLFIBhdzb-22" value="" style="line;strokeWidth=2;direction=north;html=1;rotation=30;" vertex="1" parent="1">
          <mxGeometry x="370" y="635.69" width="10" height="64" as="geometry" />
        </mxCell>
        <mxCell id="Ioz14Vr7OrkPLFIBhdzb-23" value="" style="line;strokeWidth=2;direction=north;html=1;rotation=155;" vertex="1" parent="1">
          <mxGeometry x="449" y="635.69" width="10" height="60" as="geometry" />
        </mxCell>
        <mxCell id="Ioz14Vr7OrkPLFIBhdzb-24" value="" style="line;strokeWidth=2;direction=north;html=1;rotation=155;" vertex="1" parent="1">
          <mxGeometry x="730" y="637.69" width="10" height="60" as="geometry" />
        </mxCell>
        <mxCell id="Ioz14Vr7OrkPLFIBhdzb-25" value="" style="line;strokeWidth=2;direction=north;html=1;rotation=30;" vertex="1" parent="1">
          <mxGeometry x="650" y="635.33" width="10" height="64" as="geometry" />
        </mxCell>
        <mxCell id="Ioz14Vr7OrkPLFIBhdzb-26" value="" style="line;strokeWidth=2;direction=north;html=1;rotation=30;" vertex="1" parent="1">
          <mxGeometry x="910" y="635.69" width="10" height="64" as="geometry" />
        </mxCell>
        <mxCell id="Ioz14Vr7OrkPLFIBhdzb-27" value="" style="line;strokeWidth=2;direction=north;html=1;rotation=155;" vertex="1" parent="1">
          <mxGeometry x="990" y="635.33" width="10" height="60" as="geometry" />
        </mxCell>
        <mxCell id="Ioz14Vr7OrkPLFIBhdzb-40" style="edgeStyle=orthogonalEdgeStyle;rounded=0;orthogonalLoop=1;jettySize=auto;html=1;" edge="1" parent="1" source="Ioz14Vr7OrkPLFIBhdzb-31">
          <mxGeometry relative="1" as="geometry">
            <mxPoint x="590" y="172.5" as="targetPoint" />
          </mxGeometry>
        </mxCell>
        <mxCell id="Ioz14Vr7OrkPLFIBhdzb-31" value="Porta&amp;nbsp;&lt;span style=&quot;background-color: transparent; color: light-dark(rgb(0, 0, 0), rgb(255, 255, 255));&quot;&gt;LAN:&lt;/span&gt;&lt;div&gt;&lt;br&gt;&lt;div&gt;&amp;nbsp;172.16.0.210&lt;/div&gt;&lt;/div&gt;" style="ellipse;whiteSpace=wrap;html=1;" vertex="1" parent="1">
          <mxGeometry x="630" y="140" width="120" height="65" as="geometry" />
        </mxCell>
        <mxCell id="Ioz14Vr7OrkPLFIBhdzb-39" style="edgeStyle=orthogonalEdgeStyle;rounded=0;orthogonalLoop=1;jettySize=auto;html=1;" edge="1" parent="1" source="Ioz14Vr7OrkPLFIBhdzb-33">
          <mxGeometry relative="1" as="geometry">
            <mxPoint x="510" y="172.5" as="targetPoint" />
          </mxGeometry>
        </mxCell>
        <mxCell id="Ioz14Vr7OrkPLFIBhdzb-33" value="Firewall de Borda&lt;br&gt;(NAT Ativado)" style="ellipse;whiteSpace=wrap;html=1;" vertex="1" parent="1">
          <mxGeometry x="359" y="140" width="120" height="65" as="geometry" />
        </mxCell>
        <mxCell id="Ioz14Vr7OrkPLFIBhdzb-34" value="Porta W&lt;span style=&quot;background-color: transparent; color: light-dark(rgb(0, 0, 0), rgb(255, 255, 255));&quot;&gt;AN:&lt;/span&gt;&lt;div&gt;&lt;br&gt;&lt;div&gt;&amp;nbsp;172.16.0.209&lt;/div&gt;&lt;/div&gt;" style="ellipse;whiteSpace=wrap;html=1;" vertex="1" parent="1">
          <mxGeometry x="630" y="302.5" width="120" height="65" as="geometry" />
        </mxCell>
        <mxCell id="Ioz14Vr7OrkPLFIBhdzb-35" value="Roteador Central" style="ellipse;whiteSpace=wrap;html=1;" vertex="1" parent="1">
          <mxGeometry x="354" y="302.5" width="120" height="65" as="geometry" />
        </mxCell>
        <mxCell id="Ioz14Vr7OrkPLFIBhdzb-36" style="edgeStyle=orthogonalEdgeStyle;rounded=0;orthogonalLoop=1;jettySize=auto;html=1;exitX=1;exitY=0.5;exitDx=0;exitDy=0;entryX=0;entryY=0.5;entryDx=0;entryDy=0;entryPerimeter=0;" edge="1" parent="1" source="Ioz14Vr7OrkPLFIBhdzb-35" target="Xew_BR4jW7hNaRtCo3TJ-5">
          <mxGeometry relative="1" as="geometry" />
        </mxCell>
        <mxCell id="Ioz14Vr7OrkPLFIBhdzb-37" style="edgeStyle=orthogonalEdgeStyle;rounded=0;orthogonalLoop=1;jettySize=auto;html=1;entryX=1;entryY=0.5;entryDx=0;entryDy=0;entryPerimeter=0;" edge="1" parent="1" source="Ioz14Vr7OrkPLFIBhdzb-34" target="Xew_BR4jW7hNaRtCo3TJ-5">
          <mxGeometry relative="1" as="geometry" />
        </mxCell>
        <mxCell id="Ioz14Vr7OrkPLFIBhdzb-41" value="Link WAN&lt;div&gt;&lt;div&gt;172.16.0.208 /30&lt;/div&gt;&lt;/div&gt;" style="rounded=0;whiteSpace=wrap;html=1;" vertex="1" parent="1">
          <mxGeometry x="490" y="240" width="120" height="37.5" as="geometry" />
        </mxCell>
      </root>
    </mxGraphModel>
  </diagram>
</mxfile>
